<?xml version="1.0" encoding="utf-8"?>
<!-- Generator: Adobe Illustrator 23.0.3, SVG Export Plug-In . SVG Version: 6.00 Build 0)  -->
<svg version="1.1" id="Calque_1" xmlns="http://www.w3.org/2000/svg" xmlns:xlink="http://www.w3.org/1999/xlink" x="0px" y="0px"
	 viewBox="0 0 1000 400" style="enable-background:new 0 0 1000 400;" xml:space="preserve">
<style type="text/css">
	.st0{fill:#C12227;}
</style>
<g>
	<g>
		<path class="st0" d="M368.29,313.83C377.97,266.09,361,349.82,368.29,313.83z"/>
		<path class="st0" d="M384.15,322.25c-16.94,47.58-83.94,58.78-134.85,60.78c-101.78,4-187.46-75.63-190.76-177.6
			C55.3,105.42,133.79,20.59,233.75,16.06c41.11-1.86,86.29,2.45,111.28,31.29c12.63,14.57,13.06,31.1,13.03,36.94
			c-0.23,59.02-52.1,87.36-99.52,74.26c-18.47-5.03-30.23-22.41-27.75-39.77c3.4-23.3,28.74-37.53,53.35-30.01
			c2.85,0.81,4.95-2.68,2.89-4.8c-0.07-0.07-0.13-0.13-0.2-0.2c-12.67-11.3-27.32-10.58-41.48-4.85
			c-25.35,10.2-38.75,31.73-46.42,56.35c-8.58,27.62-9.47,55.17-4.03,82.54c1.93,9.72,4.66,19.42,8.13,29.09
			c14.54,40.43,37.62,56.65,77.24,54.37c6.89-0.41,9.8-3.12,9.1-10c-1.89-18.77-3.63-37.55-5.66-56.32
			c-0.51-5.59,1.29-7.39,6.61-7.6c14.38-0.28,28.74-0.98,43.1-1.55c13.01-0.51,26.15-0.92,39.28-1.64c1.08-0.06,2.16-0.11,3.24-0.17
			c5.88-0.37,8.24,1.11,8.35,7.58l1.79,30.36C386.07,261.94,388.2,310.89,384.15,322.25z"/>
	</g>
	<path class="st0" d="M426.99,367.68"/>
</g>
<path class="st0" d="M556.12,346.12c8.49-0.02,17.04-0.1,25.53-0.01c2.6-0.01,3.3-0.77,2.91-3.47c-1.66-13.63-3.16-27.26-4.54-40.88
	c-0.56-5.35-0.52-10.82-0.96-16.17c-0.28-3.35,1.51-3.52,3.83-2.88c6.5,1.88,10.19,6.63,11.61,12.9c1.48,6.49,2.25,13.19,3.41,19.74
	c2.09,12.22,7.04,22.81,17.61,30.14c14.36,9.92,33.72,7.97,44.67-4.77c5.61-6.56,7.59-14.46,7.24-22.85
	c-0.23-5.25-1.49-10.44-2.31-15.63c-0.11-0.65-0.6-1.24-0.92-1.89c-0.49,0.43-1.08,0.76-1.4,1.3c-7.33,10.24-21.29,9.79-27.54-1.12
	c-2.34-4.11-3.7-8.7-5.82-12.91c-2.01-4-4.24-7.94-6.74-11.67c-1.3-1.94-1.2-2.49,0.91-3.41c10.86-4.9,20.42-11.63,24.01-23.54
	c4.5-14.94,2.74-29.27-8.76-40.87c-7.21-7.28-16.9-9.69-26.75-11.02c-27.44-3.61-54.86-2.07-82.33-0.27
	c-2.6,0.17-2.43,1.85-2.21,3.58c1,9.84,2.43,19.63,2.94,29.47c0.57,11.52,0.49,23.1,0.52,34.67c0.02,9.25-0.06,18.55-0.47,27.81
	c-0.61,13.15-1.61,26.29-2.44,39.44c-0.26,4.11-0.63,8.22-0.67,12.34c0,0.7,1.68,1.94,2.6,1.94
	C538.7,346.22,547.41,346.15,556.12,346.12z M583.4,227.04c4.17,0.69,8.44,1.01,12.5,2.13c5.03,1.39,6.77,3.93,6.62,7.72
	c-0.15,3.73-2.9,7.15-7.5,7.92c-5.03,0.88-10.17,1.05-15.25,1.28c-0.76,0.06-2.11-1.4-2.28-2.32c-0.49-2.92-0.56-5.89-0.83-8.87
	C575.99,227.55,575.99,227.49,583.4,227.04z"/>
<path class="st0" d="M875.75,196.73c-13.04,0.03-26.07,0.12-39.11,0.05c-2.38,0.01-3.24,0.82-3.56,3.2
	c-3.61,25.16-6.74,50.38-11.27,75.38c-3.73,20.46-9.2,40.6-13.96,60.89c-0.59,2.49-1.5,4.93-1.87,7.47
	c-0.11,0.76,1.2,2.43,1.85,2.43c17.8,0.06,35.54,0.01,53.34-0.03c2.7-0.01,2.11-1.63,1.83-3.3c-1.21-8.92-2.37-17.9-3.48-26.88
	c-0.28-2.33,0.64-3.09,3.08-2.5c8.99,2.25,18.02,2.77,26.94-0.61c2.27-0.87,3.08-0.06,2.82,2.16c-1.06,9.42-2.01,18.88-3.23,28.3
	c-0.26,2.16,0.12,2.76,2.23,2.75c17.53-0.1,35-0.15,52.53-0.14c2.22-0.01,2.76-0.66,2.16-2.93c-6.89-26.22-14.31-52.33-20.33-78.71
	c-4.82-21.08-7.74-42.61-7.26-64.35c0.05-2.43-0.82-3.35-3.31-3.35C901.99,196.72,888.9,196.7,875.75,196.73z M875.53,235.95
	c0.54,0.76,0.87,1.08,0.98,1.4c3.71,13.24,7.48,26.49,11.09,39.78c0.16,0.65-1.08,2.33-1.83,2.39c-6.38,0.77-12.82,1.44-19.25,1.89
	c-2.43,0.17-3.3-1.18-2.66-3.67c2.57-9.74,4.93-19.49,7.55-29.23C872.53,244.45,874.03,240.45,875.53,235.95z"/>
<path class="st0" d="M744.4,193.02c-29.42,1.11-50.17,12.84-62.33,37.71c-8.18,16.68-10.29,34.65-8.14,53.03
	c1.27,10.98,3.57,21.79,8.47,31.79c7.67,15.72,20.73,25.21,37.08,29.87c21.01,6.06,41.07,3.03,59.21-9.46
	c13.66-9.45,21.41-23.1,25.59-38.96c3.64-13.86,5.01-27.98,3.03-42.2c-3.75-27.09-19.45-50.91-48.03-59.38
	C753.87,193.86,748.03,193.61,744.4,193.02z M717.34,270.4c-0.29-7.95,1.8-15.31,5.24-22.3c3.39-6.93,8.73-11.44,16.58-12.05
	c10.82-0.84,19.7,5.25,23.74,16.49c6.32,17.4,3.66,33.53-7.83,48.06c-7.6,9.65-18.96,9.62-26.83,0.29
	C720.81,292.08,717.64,281.76,717.34,270.4z"/>
<path class="st0" d="M509.25,294.96c-3.18,3.42-6.09,6.99-9.49,9.98c-10.25,8.9-25.13,10.94-35.53,5.07
	c-6.5-3.66-10.52-8.95-10.76-16.74c-0.29-8.01,4.62-13.1,10.23-17.72c0.16-0.16,1.57,0.65,1.79,1.24
	c3.16,8.76,10.1,13.44,18.8,12.55c8.87-0.89,15.88-7.99,16.89-17.03c0.95-8.44-4.37-16.43-12.82-19.44
	c-12.83-4.62-24.57-2.21-35.64,5.18c-0.65,0.43-1.51,0.65-2.32,0.93c-0.06-0.76-0.22-1.57-0.11-2.33
	c1.65-11.09,5.95-20.84,14.75-28.01c10.96-8.9,26.92-8.46,37.49,0.87c1.57,1.4,3.04,2.91,4.56,4.32c0.33,0.32,0.76,0.48,1.14,0.75
	c0.16-0.38,0.48-0.81,0.54-1.19c0.78-10.98,1.56-21.97,2.35-32.95c0.21-2.81-1.68-2.75-3.63-2.75c-27.16,0.07-54.31,0.14-81.52,0.21
	c-8.33,0.02-16.61,0.1-24.94,0.01c-2.22,0.01-2.65,0.76-2.37,2.93c2.1,18.71,4.53,37.42,5.88,56.19c1.8,24.77,0.18,49.44-3.1,74.06
	c-0.58,4.49-1.38,8.98-2.18,13.42c-0.32,1.89,0.06,2.81,2.17,2.81c35.81-0.09,71.62-0.19,107.43-0.39c0.76,0,2.27-1.36,2.21-2.06
	c-0.48-16.23-1.17-32.4-1.75-48.63C509.41,295.77,509.3,295.34,509.25,294.96z"/>
</svg>
