<?xml version="1.0" encoding="utf-8"?>
<!-- Generator: Adobe Illustrator 23.0.3, SVG Export Plug-In . SVG Version: 6.00 Build 0)  -->
<svg version="1.1" id="Calque_1" xmlns="http://www.w3.org/2000/svg" xmlns:xlink="http://www.w3.org/1999/xlink" x="0px" y="0px"
	 viewBox="0 0 1000 400" style="enable-background:new 0 0 1000 400;" xml:space="preserve">
<style type="text/css">
	.st0{fill:#C12026;}
</style>
<g>
	<g>
		<path d="M332.33,235.77c-0.08-0.79-0.35-3.45-1.17-4.45c-0.87-1.06-3.8-0.82-4.52-0.82c-10.14,0.04-19.92-0.18-29.8-0.18
			c-10.08,0-20.17,0.1-30.25-0.1c-3.73,0-5.04,1.21-4.84,5.14c0.91,13.21,1.61,26.42,2.42,39.63c0.3,4.84-1.82,6.66-6.66,6.76
			c-27.83,0.5-43.56-11.5-52.64-40.23c-8.27-26.22-8.97-52.44,0.2-78.35c6.05-17.04,16.03-31.76,34.08-38.22
			c10.08-3.63,20.37-3.73,28.94,4.54c1.01,1.01,1.41,2.52,2.02,3.83c-1.41-0.1-2.82,0-4.03-0.4c-17.04-5.95-35.19,3.33-38.22,19.56
			c-2.22,12.1,5.55,24.6,18.35,28.64c32.87,10.49,69.68-7.97,71.8-49.31c1.01-19.86-3.53-37.41-19.66-50.32
			c-10.99-8.67-23.9-13.51-37.51-16.03c-71.09-13.31-129.07,25.51-156.5,83.09c-12,24.71-15.53,51.12-13.61,78.45
			c1.82,26.02,9.78,49.81,23.9,71.59c4.36,6.69,9.23,12.63,14.56,17.9c17.41,17.21,37.28,24.47,51.99,29.49
			c7.14,2.44,43.58,14.91,91.67,10.08c4.15-0.42,11.57-2.22,13.21-2.6C286.05,353.46,343.19,340.83,332.33,235.77z"/>
	</g>
	<g>
		<path class="st0" d="M322.33,225.77c-0.08-0.79-0.35-3.45-1.17-4.45c-0.87-1.06-3.8-0.82-4.52-0.82
			c-10.14,0.04-19.92-0.18-29.8-0.18c-10.08,0-20.17,0.1-30.25-0.1c-3.73,0-5.04,1.21-4.84,5.14c0.91,13.21,1.61,26.42,2.42,39.63
			c0.3,4.84-1.82,6.66-6.66,6.76c-27.83,0.5-43.56-11.5-52.64-40.23c-8.27-26.22-8.97-52.44,0.2-78.35
			c6.05-17.04,16.03-31.76,34.08-38.22c10.08-3.63,20.37-3.73,28.94,4.54c1.01,1.01,1.41,2.52,2.02,3.83c-1.41-0.1-2.82,0-4.03-0.4
			c-17.04-5.95-35.19,3.33-38.22,19.56c-2.22,12.1,5.55,24.6,18.35,28.64c32.87,10.49,69.68-7.97,71.8-49.31
			c1.01-19.86-3.53-37.41-19.66-50.32c-10.99-8.67-23.9-13.51-37.51-16.03c-71.09-13.31-129.07,25.51-156.5,83.09
			c-12,24.71-15.53,51.12-13.61,78.45c1.82,26.02,9.78,49.81,23.9,71.59c4.36,6.69,9.23,12.63,14.56,17.9
			c17.41,17.21,37.28,24.47,51.99,29.49c7.14,2.44,43.58,14.91,91.67,10.08c4.15-0.42,11.57-2.22,13.21-2.6
			C276.05,343.46,333.19,330.83,322.33,225.77z"/>
	</g>
</g>
<g>
	<g>
		<path d="M510.99,344.9c9.16,0,18.38-0.06,27.54,0.06c2.8,0,3.56-0.82,3.15-3.73c-1.75-14.7-3.33-29.41-4.78-44.11
			c-0.58-5.78-0.53-11.67-0.99-17.45c-0.29-3.62,1.63-3.79,4.14-3.09c7,2.04,10.97,7.18,12.49,13.95c1.58,7,2.39,14.24,3.62,21.3
			c2.22,13.19,7.53,24.62,18.91,32.56c15.46,10.74,36.35,8.69,48.2-5.02c6.07-7.06,8.23-15.58,7.88-24.62
			c-0.23-5.66-1.58-11.26-2.45-16.86c-0.12-0.7-0.64-1.34-0.99-2.04c-0.53,0.47-1.17,0.82-1.52,1.4
			c-7.94,11.03-22.99,10.5-29.7-1.28c-2.51-4.43-3.97-9.39-6.24-13.95c-2.16-4.32-4.55-8.58-7.24-12.6c-1.4-2.1-1.28-2.68,0.99-3.68
			c11.73-5.25,22.06-12.49,25.97-25.32c4.9-16.1,3.03-31.57-9.34-44.11c-7.76-7.88-18.2-10.5-28.82-11.96
			c-29.58-3.97-59.17-2.39-88.81-0.53c-2.8,0.18-2.63,1.98-2.39,3.85c1.05,10.62,2.57,21.18,3.09,31.8
			c0.58,12.43,0.47,24.92,0.47,37.4c0,9.98-0.12,20.01-0.58,29.99c-0.7,14.18-1.81,28.36-2.74,42.54c-0.29,4.43-0.7,8.87-0.76,13.3
			c0,0.76,1.81,2.1,2.8,2.1C492.2,344.96,501.59,344.9,510.99,344.9z M540.75,216.54c4.49,0.76,9.1,1.11,13.48,2.33
			c5.43,1.52,7.29,4.26,7.12,8.34c-0.17,4.03-3.15,7.7-8.11,8.52c-5.43,0.93-10.97,1.11-16.45,1.34c-0.82,0.06-2.28-1.52-2.45-2.51
			c-0.53-3.15-0.58-6.36-0.88-9.57C532.75,217.06,532.75,217,540.75,216.54z"/>
	</g>
	<g>
		<path class="st0" d="M500.99,334.9c9.16,0,18.38-0.06,27.54,0.06c2.8,0,3.56-0.82,3.15-3.73c-1.75-14.7-3.33-29.41-4.78-44.11
			c-0.58-5.78-0.53-11.67-0.99-17.45c-0.29-3.62,1.63-3.79,4.14-3.09c7,2.04,10.97,7.18,12.49,13.95c1.58,7,2.39,14.24,3.62,21.3
			c2.22,13.19,7.53,24.62,18.91,32.56c15.46,10.74,36.35,8.69,48.2-5.02c6.07-7.06,8.23-15.58,7.88-24.62
			c-0.23-5.66-1.58-11.26-2.45-16.86c-0.12-0.7-0.64-1.34-0.99-2.04c-0.53,0.47-1.17,0.82-1.52,1.4
			c-7.94,11.03-22.99,10.5-29.7-1.28c-2.51-4.43-3.97-9.39-6.24-13.95c-2.16-4.32-4.55-8.58-7.24-12.6c-1.4-2.1-1.28-2.68,0.99-3.68
			c11.73-5.25,22.06-12.49,25.97-25.32c4.9-16.1,3.03-31.57-9.34-44.11c-7.76-7.88-18.2-10.5-28.82-11.96
			c-29.58-3.97-59.17-2.39-88.81-0.53c-2.8,0.18-2.63,1.98-2.39,3.85c1.05,10.62,2.57,21.18,3.09,31.8
			c0.58,12.43,0.47,24.92,0.47,37.4c0,9.98-0.12,20.01-0.58,29.99c-0.7,14.18-1.81,28.36-2.74,42.54c-0.29,4.43-0.7,8.87-0.76,13.3
			c0,0.76,1.81,2.1,2.8,2.1C482.2,334.96,491.59,334.9,500.99,334.9z M530.75,206.54c4.49,0.76,9.1,1.11,13.48,2.33
			c5.43,1.52,7.29,4.26,7.12,8.34c-0.17,4.03-3.15,7.7-8.11,8.52c-5.43,0.93-10.97,1.11-16.45,1.34c-0.82,0.06-2.28-1.52-2.45-2.51
			c-0.53-3.15-0.58-6.36-0.88-9.57C522.75,207.06,522.75,207,530.75,206.54z"/>
	</g>
</g>
<g>
	<g>
		<path d="M856.18,184.68c-14.06,0-28.12,0.06-42.19-0.06c-2.57,0-3.5,0.88-3.85,3.44c-3.97,27.13-7.41,54.32-12.37,81.28
			c-4.08,22.06-10.04,43.76-15.23,65.64c-0.64,2.68-1.63,5.31-2.04,8.05c-0.12,0.82,1.28,2.63,1.98,2.63
			c19.2,0.12,38.34,0.12,57.53,0.12c2.92,0,2.28-1.75,1.98-3.56c-1.28-9.63-2.51-19.31-3.68-29c-0.29-2.51,0.7-3.33,3.33-2.68
			c9.69,2.45,19.43,3.03,29.06-0.58c2.45-0.93,3.33-0.06,3.03,2.33c-1.17,10.15-2.22,20.36-3.56,30.52
			c-0.29,2.33,0.12,2.98,2.39,2.98c18.91-0.06,37.75-0.06,56.66,0c2.39,0,2.98-0.7,2.33-3.15c-7.35-28.3-15.29-56.48-21.71-84.96
			c-5.13-22.76-8.23-45.98-7.64-69.44c0.06-2.63-0.88-3.62-3.56-3.62C884.48,184.74,870.36,184.68,856.18,184.68z M855.83,226.98
			c0.58,0.82,0.93,1.17,1.05,1.52c3.97,14.3,7.99,28.59,11.84,42.94c0.18,0.7-1.17,2.51-1.98,2.57c-6.89,0.82-13.83,1.52-20.77,1.98
			c-2.63,0.18-3.56-1.28-2.86-3.97c2.8-10.5,5.37-21.01,8.23-31.51C852.56,236.14,854.2,231.82,855.83,226.98z"/>
	</g>
	<g>
		<path class="st0" d="M846.18,174.68c-14.06,0-28.12,0.06-42.19-0.06c-2.57,0-3.5,0.88-3.85,3.44
			c-3.97,27.13-7.41,54.32-12.37,81.28c-4.08,22.06-10.04,43.76-15.23,65.64c-0.64,2.68-1.63,5.31-2.04,8.05
			c-0.12,0.82,1.28,2.63,1.98,2.63c19.2,0.12,38.34,0.12,57.53,0.12c2.92,0,2.28-1.75,1.98-3.56c-1.28-9.63-2.51-19.31-3.68-29
			c-0.29-2.51,0.7-3.33,3.33-2.68c9.69,2.45,19.43,3.03,29.06-0.58c2.45-0.93,3.33-0.06,3.03,2.33
			c-1.17,10.15-2.22,20.36-3.56,30.52c-0.29,2.33,0.12,2.98,2.39,2.98c18.91-0.06,37.75-0.06,56.66,0c2.39,0,2.98-0.7,2.33-3.15
			c-7.35-28.3-15.29-56.48-21.71-84.96c-5.13-22.76-8.23-45.98-7.64-69.44c0.06-2.63-0.88-3.62-3.56-3.62
			C874.48,174.74,860.36,174.68,846.18,174.68z M845.83,216.98c0.58,0.82,0.93,1.17,1.05,1.52c3.97,14.3,7.99,28.59,11.84,42.94
			c0.18,0.7-1.17,2.51-1.98,2.57c-6.89,0.82-13.83,1.52-20.77,1.98c-2.63,0.18-3.56-1.28-2.86-3.97c2.8-10.5,5.37-21.01,8.23-31.51
			C842.56,226.14,844.2,221.82,845.83,216.98z"/>
	</g>
</g>
<g>
	<g>
		<path d="M714.51,180.3c-31.74,1.11-54.15,13.71-67.33,40.49c-8.87,17.97-11.2,37.34-8.93,57.18c1.34,11.84,3.79,23.51,9.04,34.31
			c8.23,16.98,22.29,27.25,39.91,32.33c22.64,6.59,44.29,3.38,63.89-10.04c14.76-10.15,23.16-24.86,27.72-41.95
			c3.97-14.94,5.48-30.17,3.38-45.51c-3.97-29.23-20.83-54.96-51.64-64.18C724.72,181.24,718.42,180.94,714.51,180.3z M685.1,263.68
			c-0.29-8.58,1.98-16.51,5.72-24.04c3.68-7.47,9.45-12.31,17.91-12.95c11.67-0.88,21.24,5.72,25.56,17.85
			c6.77,18.79,3.85,36.18-8.58,51.81c-8.23,10.39-20.48,10.33-28.94,0.23C688.78,287.08,685.39,275.94,685.1,263.68z"/>
	</g>
	<g>
		<path class="st0" d="M704.51,170.3c-31.74,1.11-54.15,13.71-67.33,40.49c-8.87,17.97-11.2,37.34-8.93,57.18
			c1.34,11.84,3.79,23.51,9.04,34.31c8.23,16.98,22.29,27.25,39.91,32.33c22.64,6.59,44.29,3.38,63.89-10.04
			c14.76-10.15,23.16-24.86,27.72-41.95c3.97-14.94,5.48-30.17,3.38-45.51c-3.97-29.23-20.83-54.96-51.64-64.18
			C714.72,171.24,708.42,170.94,704.51,170.3z M675.1,253.68c-0.29-8.58,1.98-16.51,5.72-24.04c3.68-7.47,9.45-12.31,17.91-12.95
			c11.67-0.88,21.24,5.72,25.56,17.85c6.77,18.79,3.85,36.18-8.58,51.81c-8.23,10.39-20.48,10.33-28.94,0.23
			C678.78,277.08,675.39,265.94,675.1,253.68z"/>
	</g>
</g>
<g>
	<g>
		<path d="M460.57,289.59c-3.44,3.68-6.59,7.53-10.27,10.74c-11.09,9.57-27.13,11.73-38.34,5.37c-7-3.97-11.32-9.69-11.55-18.09
			c-0.29-8.64,5.02-14.12,11.09-19.08c0.18-0.18,1.69,0.7,1.93,1.34c3.38,9.45,10.85,14.53,20.25,13.6
			c9.57-0.93,17.15-8.58,18.26-18.32c1.05-9.1-4.67-17.74-13.77-21.01c-13.83-5.02-26.49-2.45-38.45,5.48
			c-0.7,0.47-1.63,0.7-2.51,0.99c-0.06-0.82-0.23-1.69-0.12-2.51c1.81-11.96,6.48-22.46,15.99-30.17
			c11.84-9.57,29.06-9.04,40.44,1.05c1.69,1.52,3.27,3.15,4.9,4.67c0.35,0.35,0.82,0.53,1.23,0.82c0.18-0.41,0.53-0.88,0.58-1.28
			c0.88-11.84,1.75-23.69,2.63-35.53c0.23-3.03-1.81-2.98-3.91-2.98c-29.29,0-58.58,0-87.93,0c-8.99,0-17.91,0.06-26.9-0.06
			c-2.39,0-2.86,0.82-2.57,3.15c2.22,20.19,4.78,40.38,6.18,60.62c1.87,26.72,0.06,53.33-3.56,79.88
			c-0.64,4.84-1.52,9.69-2.39,14.47c-0.35,2.04,0.06,3.03,2.33,3.03c38.63,0,77.25,0,115.88-0.12c0.82,0,2.45-1.46,2.39-2.22
			c-0.47-17.5-1.17-34.95-1.75-52.46C460.75,290.46,460.63,290,460.57,289.59z"/>
	</g>
	<g>
		<path class="st0" d="M450.57,279.59c-3.44,3.68-6.59,7.53-10.27,10.74c-11.09,9.57-27.13,11.73-38.34,5.37
			c-7-3.97-11.32-9.69-11.55-18.09c-0.29-8.64,5.02-14.12,11.09-19.08c0.18-0.18,1.69,0.7,1.93,1.34
			c3.38,9.45,10.85,14.53,20.25,13.6c9.57-0.93,17.15-8.58,18.26-18.32c1.05-9.1-4.67-17.74-13.77-21.01
			c-13.83-5.02-26.49-2.45-38.45,5.48c-0.7,0.47-1.63,0.7-2.51,0.99c-0.06-0.82-0.23-1.69-0.12-2.51
			c1.81-11.96,6.48-22.46,15.99-30.17c11.84-9.57,29.06-9.04,40.44,1.05c1.69,1.52,3.27,3.15,4.9,4.67
			c0.35,0.35,0.82,0.53,1.23,0.82c0.18-0.41,0.53-0.88,0.58-1.28c0.88-11.84,1.75-23.69,2.63-35.53c0.23-3.03-1.81-2.98-3.91-2.98
			c-29.29,0-58.58,0-87.93,0c-8.99,0-17.91,0.06-26.9-0.06c-2.39,0-2.86,0.82-2.57,3.15c2.22,20.19,4.78,40.38,6.18,60.62
			c1.87,26.72,0.06,53.33-3.56,79.88c-0.64,4.84-1.52,9.69-2.39,14.47c-0.35,2.04,0.06,3.03,2.33,3.03c38.63,0,77.25,0,115.88-0.12
			c0.82,0,2.45-1.46,2.39-2.22c-0.47-17.5-1.17-34.95-1.75-52.46C450.75,280.46,450.63,280,450.57,279.59z"/>
	</g>
</g>
</svg>
