<?xml version="1.0" encoding="utf-8"?>
<!-- Generator: Adobe Illustrator 23.0.3, SVG Export Plug-In . SVG Version: 6.00 Build 0)  -->
<svg version="1.1" id="Calque_1" xmlns="http://www.w3.org/2000/svg" xmlns:xlink="http://www.w3.org/1999/xlink" x="0px" y="0px"
	 viewBox="0 0 600 600" style="enable-background:new 0 0 600 600;" xml:space="preserve">
<style type="text/css">
	.st0{fill:#C12026;}
</style>
<path class="st0" d="M529.6,350.46c-0.16-1.55-0.68-6.76-2.29-8.71c-1.71-2.08-7.44-1.61-8.86-1.6
	c-19.85,0.08-39.01-0.35-58.36-0.35c-19.75,0-39.49,0.2-59.24-0.2c-7.31,0-9.87,2.37-9.48,10.07c1.78,25.87,3.16,51.74,4.74,77.6
	c0.59,9.48-3.55,13.03-13.03,13.23C328.58,441.5,297.77,418,280,361.72c-16.19-51.34-17.57-102.68,0.39-153.43
	c11.85-33.37,31.4-62.2,66.74-74.84c19.75-7.11,39.89-7.31,56.67,8.89c1.97,1.97,2.76,4.94,3.95,7.5c-2.76-0.2-5.53,0-7.9-0.79
	c-33.37-11.65-68.92,6.52-74.84,38.31c-4.34,23.7,10.86,48.18,35.94,56.08c64.37,20.54,136.45-15.6,140.6-96.56
	c1.97-38.9-6.91-73.26-38.51-98.54c-21.52-16.98-46.8-26.46-73.46-31.4C250.38-9.12,136.84,66.9,83.13,179.66
	c-23.5,48.38-30.41,100.12-26.66,153.63c3.55,50.95,19.15,97.55,46.8,140.2c8.53,13.09,18.07,24.73,28.52,35.05
	c34.1,33.7,73,47.93,101.81,57.75c13.99,4.77,85.34,29.2,179.51,19.74c8.12-0.82,22.66-4.36,25.87-5.1
	C438.97,580.93,550.86,556.19,529.6,350.46z"/>
</svg>
