<?xml version="1.0" encoding="utf-8"?>
<!-- Generator: Adobe Illustrator 23.0.3, SVG Export Plug-In . SVG Version: 6.00 Build 0)  -->
<svg version="1.1" id="Calque_1" xmlns="http://www.w3.org/2000/svg" xmlns:xlink="http://www.w3.org/1999/xlink" x="0px" y="0px"
	 viewBox="0 0 600 600" style="enable-background:new 0 0 600 600;" xml:space="preserve">
<style type="text/css">
	.st0{fill:#C12026;}
</style>
<path class="st0" d="M550.15,494.63c-27.5,73.79-132.19,89.73-211.62,91.69C179.77,590.24,48,464.16,45.18,305.11
	C42.41,149.12,166.7,18.66,322.64,13.87c64.14-1.97,134.47,5.79,172.77,51.31c19.35,23,19.65,48.78,19.48,57.88
	c-1.69,92-83.21,135.01-156.84,113.51c-28.68-8.26-46.62-35.62-42.35-62.63c5.83-36.24,45.66-57.85,83.85-45.57
	c4.42,1.33,7.79-4.07,4.61-7.42c-0.1-0.11-0.21-0.21-0.31-0.31c-19.5-17.9-42.35-17.12-64.56-8.5
	c-39.76,15.33-61.13,48.59-73.64,86.79c-14,42.86-16.02,85.8-8.16,128.59c2.79,15.2,6.82,30.38,12.01,45.53
	c21.74,63.36,57.36,89.17,119.17,86.52c10.75-0.49,15.36-4.64,14.42-15.38c-2.52-29.31-4.81-58.62-7.55-87.93
	c-0.66-8.73,2.18-11.49,10.47-11.69c22.42-0.1,44.82-0.88,67.23-1.44c20.29-0.5,40.78-0.84,61.27-1.67
	c1.68-0.07,3.37-0.12,5.05-0.19c9.18-0.45,12.83,1.93,12.85,12.01l2.11,47.37C554.51,400.66,556.71,477.02,550.15,494.63z"/>
</svg>
